<?xml version="1.0" encoding="utf-8"?>
<!-- Generator: Adobe Illustrator 16.0.0, SVG Export Plug-In . SVG Version: 6.00 Build 0)  -->
<!DOCTYPE svg PUBLIC "-//W3C//DTD SVG 1.1//EN" "http://www.w3.org/Graphics/SVG/1.1/DTD/svg11.dtd">
<svg version="1.1" id="Layer_1" xmlns="http://www.w3.org/2000/svg" xmlns:xlink="http://www.w3.org/1999/xlink" x="0px" y="0px"
	 width="550px" height="150px" viewBox="0 0 550 150" enable-background="new 0 0 550 150" xml:space="preserve">
<g>
	<g>
		<g>
			<g>
				<path fill="none" stroke="#FFFFFF" stroke-width="1.5" stroke-miterlimit="10" d="M53.345,125.407
					c-10.662,1.704-21.304,3.528-31.926,5.465c0-36.965,0-73.93,0-110.896c10.621,1.936,21.264,3.754,31.926,5.453
					C53.345,58.755,53.345,92.082,53.345,125.407z"/>
				<path fill="none" stroke="#FFFFFF" stroke-width="1.5" stroke-miterlimit="10" d="M85.048,120.709
					c-10.665,1.462-21.312,3.039-31.942,4.735c0-33.351,0-66.702,0-100.053c10.629,1.694,21.277,3.271,31.942,4.726
					C85.048,60.314,85.048,90.512,85.048,120.709z"/>
				<path fill="none" stroke="#FFFFFF" stroke-width="1.5" stroke-miterlimit="10" d="M116.766,116.732
					c-10.667,1.217-21.319,2.551-31.955,4.01c0-30.22,0-60.438,0-90.657c10.636,1.452,21.289,2.788,31.956,3.999
					C116.767,61.633,116.768,89.184,116.766,116.732z"/>
				<path fill="none" stroke="#FFFFFF" stroke-width="1.5" stroke-miterlimit="10" d="M148.495,113.48
					c-10.667,0.973-21.324,2.063-31.967,3.279c0-27.566,0.001-55.135,0.001-82.703c10.643,1.213,21.299,2.302,31.967,3.273
					C148.496,62.713,148.497,88.097,148.495,113.48z"/>
			</g>
			<g>
				<path fill="none" stroke="#FFFFFF" stroke-width="1.5" stroke-miterlimit="10" d="M180.234,110.95
					c-10.668,0.724-21.328,1.581-31.976,2.552c0-25.398,0-50.795,0-76.193c10.648,0.97,21.308,1.819,31.976,2.546
					C180.234,63.553,180.234,87.252,180.234,110.95z"/>
				<path fill="none" stroke="#FFFFFF" stroke-width="1.5" stroke-miterlimit="10" d="M211.98,109.142
					c-10.668,0.487-21.33,1.095-31.984,1.825c0-23.709,0-47.418,0-71.127c10.654,0.729,21.316,1.335,31.983,1.819
					C211.979,64.152,211.979,86.647,211.98,109.142z"/>
				<path fill="none" stroke="#FFFFFF" stroke-width="1.5" stroke-miterlimit="10" d="M243.73,108.057
					c-10.667,0.246-21.33,0.608-31.988,1.096c0-22.501,0-45.002,0-67.504c10.658,0.481,21.321,0.849,31.987,1.092
					C243.729,64.513,243.729,86.285,243.73,108.057z"/>
				<path fill="none" stroke="#FFFFFF" stroke-width="1.5" stroke-miterlimit="10" d="M275.481,107.695
					c-10.664-0.004-21.329,0.123-31.99,0.367c0-21.775,0-43.551,0-65.327c10.662,0.244,21.326,0.367,31.99,0.367
					C275.481,64.633,275.482,86.164,275.481,107.695z"/>
			</g>
			<g>
				<path fill="none" stroke="#FFFFFF" stroke-width="1.5" stroke-miterlimit="10" d="M306.586,108.041
					c-10.661-0.24-21.325-0.352-31.989-0.346c-0.002-21.531-0.001-43.063-0.001-64.593c10.664,0.008,21.328-0.112,31.99-0.344
					C306.586,64.519,306.586,86.279,306.586,108.041z"/>
				<path fill="none" stroke="#FFFFFF" stroke-width="1.5" stroke-miterlimit="10" d="M338.336,109.109
					c-10.657-0.482-21.321-0.84-31.986-1.074c-0.002-21.757-0.001-43.515-0.001-65.271c10.666-0.238,21.329-0.591,31.986-1.072
					C338.335,64.164,338.334,86.637,338.336,109.109z"/>
				<path fill="none" stroke="#FFFFFF" stroke-width="1.5" stroke-miterlimit="10" d="M370.082,110.898
					c-10.654-0.717-21.314-1.317-31.982-1.801c-0.004-22.465-0.002-44.931-0.002-67.396c10.668-0.477,21.33-1.076,31.984-1.796
					C370.082,63.57,370.08,87.234,370.082,110.898z"/>
				<path fill="none" stroke="#FFFFFF" stroke-width="1.5" stroke-miterlimit="10" d="M401.82,113.412
					c-10.649-0.957-21.309-1.809-31.978-2.527c-0.001-23.654,0-47.309,0-70.963c10.668-0.72,21.328-1.564,31.978-2.526
					C401.82,62.734,401.82,88.073,401.82,113.412z"/>
			</g>
			<g>
				<path fill="none" stroke="#FFFFFF" stroke-width="1.5" stroke-miterlimit="10" d="M433.549,116.65
					c-10.643-1.213-21.301-2.297-31.967-3.258c0.001-25.325,0-50.65,0-75.975c10.668-0.962,21.324-2.046,31.967-3.251
					C433.549,61.661,433.549,89.156,433.549,116.65z"/>
				<path fill="none" stroke="#FFFFFF" stroke-width="1.5" stroke-miterlimit="10" d="M465.266,120.609
					c-10.635-1.451-21.288-2.782-31.954-3.986c0-27.477,0-54.952,0-82.429c10.666-1.207,21.319-2.532,31.956-3.977
					C465.268,60.348,465.27,90.479,465.266,120.609z"/>
				<path fill="none" stroke="#FFFFFF" stroke-width="1.5" stroke-miterlimit="10" d="M496.974,125.291
					c-10.63-1.688-21.277-3.262-31.942-4.715c-0.004-30.109,0-60.219,0-90.328c10.665-1.446,21.313-3.019,31.942-4.704
					C496.974,58.793,496.974,92.042,496.974,125.291z"/>
				<path fill="none" stroke="#FFFFFF" stroke-width="1.5" stroke-miterlimit="10" d="M528.661,130.696
					c-10.622-1.937-21.266-3.747-31.928-5.442c0.006-33.225,0.002-66.447,0.002-99.671c10.662-1.692,21.304-3.502,31.926-5.43
					C528.661,57.001,528.661,93.848,528.661,130.696z"/>
			</g>
		</g>
		<path fill="none" stroke="#FFFFFF" stroke-width="1.5" stroke-miterlimit="10" d="M530.02,57.336
			c-169.54,9.88-339.455,9.892-508.994,0c0-12.567,0-25.134,0-37.701c168.647,30.408,340.345,30.393,508.994,0
			C530.02,32.202,530.02,44.77,530.02,57.336z"/>
		<path fill="none" stroke="#FFFFFF" stroke-width="1.5" stroke-miterlimit="10" d="M530.02,94.211
			c-169.54-10.313-339.454-10.303-508.994,0c0-12.566,0-25.134,0-37.7c169.528,10.337,339.465,10.336,508.994,0
			C530.02,69.078,530.019,81.645,530.02,94.211z"/>
		<path fill="none" stroke="#FFFFFF" stroke-width="1.5" stroke-miterlimit="10" d="M530.02,131.086
			c-168.664-30.383-340.329-30.386-508.994,0c-0.001-12.566-0.001-25.135,0-37.701c169.544-9.869,339.448-9.867,508.994,0
			C530.019,105.951,530.019,118.52,530.02,131.086z"/>
	</g>
</g>
<g>
	<g>
		<g>
			<g>
				<linearGradient id="SVGID_1_" gradientUnits="userSpaceOnUse" x1="-0.043" y1="110.0664" x2="69.9134" y2="40.1101">
					<stop  offset="0" style="stop-color:#1CCC74"/>
					<stop  offset="1" style="stop-color:#155799"/>
				</linearGradient>
				<path fill="none" stroke="url(#SVGID_1_)" stroke-miterlimit="10" d="M53.772,125.273c-10.693,1.713-21.367,3.543-32.02,5.488
					c0-37.113,0-74.227,0-111.341c10.652,1.944,21.327,3.77,32.02,5.475C53.772,58.355,53.772,91.814,53.772,125.273z"/>
				<linearGradient id="SVGID_2_" gradientUnits="userSpaceOnUse" x1="34.6606" y1="107.5264" x2="99.5453" y2="42.6417">
					<stop  offset="0" style="stop-color:#1CCC74"/>
					<stop  offset="1" style="stop-color:#155799"/>
				</linearGradient>
				<path fill="none" stroke="url(#SVGID_2_)" stroke-miterlimit="10" d="M85.569,120.559c-10.696,1.467-21.375,3.049-32.036,4.754
					c0-33.484,0-66.971,0-100.456c10.66,1.702,21.34,3.284,32.036,4.745C85.569,59.92,85.569,90.238,85.569,120.559z"/>
				<linearGradient id="SVGID_3_" gradientUnits="userSpaceOnUse" x1="69.0151" y1="105.3467" x2="129.5524" y2="44.8094">
					<stop  offset="0" style="stop-color:#1CCC74"/>
					<stop  offset="1" style="stop-color:#155799"/>
				</linearGradient>
				<path fill="none" stroke="url(#SVGID_3_)" stroke-miterlimit="10" d="M117.381,116.564c-10.698,1.221-21.382,2.563-32.049,4.025
					c0-30.34,0-60.68,0-91.02c10.667,1.458,21.352,2.798,32.05,4.015C117.381,61.245,117.383,88.904,117.381,116.564z"/>
				<linearGradient id="SVGID_4_" gradientUnits="userSpaceOnUse" x1="103.0195" y1="103.5313" x2="159.934" y2="46.6168">
					<stop  offset="0" style="stop-color:#1CCC74"/>
					<stop  offset="1" style="stop-color:#155799"/>
				</linearGradient>
				<path fill="none" stroke="url(#SVGID_4_)" stroke-miterlimit="10" d="M149.204,113.299c-10.699,0.979-21.388,2.072-32.062,3.295
					c0-27.68,0.001-55.357,0.001-83.036c10.674,1.218,21.362,2.311,32.062,3.286C149.205,62.329,149.206,87.814,149.204,113.299z"/>
			</g>
			<g>
				<linearGradient id="SVGID_5_" gradientUnits="userSpaceOnUse" x1="136.6743" y1="102.0781" x2="190.6889" y2="48.0636">
					<stop  offset="0" style="stop-color:#1CCC74"/>
					<stop  offset="1" style="stop-color:#155799"/>
				</linearGradient>
				<path fill="none" stroke="url(#SVGID_5_)" stroke-miterlimit="10" d="M181.037,110.76c-10.7,0.727-21.391,1.586-32.071,2.563
					c0-25.502,0-51,0-76.5c10.68,0.974,21.371,1.827,32.071,2.556C181.037,63.172,181.037,86.967,181.037,110.76z"/>
				<linearGradient id="SVGID_6_" gradientUnits="userSpaceOnUse" x1="169.9751" y1="100.9873" x2="221.8136" y2="49.1488">
					<stop  offset="0" style="stop-color:#1CCC74"/>
					<stop  offset="1" style="stop-color:#155799"/>
				</linearGradient>
				<path fill="none" stroke="url(#SVGID_6_)" stroke-miterlimit="10" d="M212.876,108.943c-10.7,0.49-21.393,1.1-32.079,1.832
					c0-23.805,0-47.608,0-71.413c10.686,0.732,21.379,1.34,32.078,1.827C212.876,63.774,212.875,86.359,212.876,108.943z"/>
				<linearGradient id="SVGID_7_" gradientUnits="userSpaceOnUse" x1="202.9204" y1="100.2607" x2="253.3069" y2="49.8742">
					<stop  offset="0" style="stop-color:#1CCC74"/>
					<stop  offset="1" style="stop-color:#155799"/>
				</linearGradient>
				<path fill="none" stroke="url(#SVGID_7_)" stroke-miterlimit="10" d="M244.721,107.855c-10.698,0.246-21.393,0.609-32.083,1.1
					c0-22.592,0-45.184,0-67.775c10.689,0.483,21.384,0.852,32.082,1.096C244.72,64.136,244.719,85.994,244.721,107.855z"/>
				<linearGradient id="SVGID_8_" gradientUnits="userSpaceOnUse" x1="235.5054" y1="99.8945" x2="285.1634" y2="50.2365">
					<stop  offset="0" style="stop-color:#1CCC74"/>
					<stop  offset="1" style="stop-color:#155799"/>
				</linearGradient>
				<path fill="none" stroke="url(#SVGID_8_)" stroke-miterlimit="10" d="M276.565,107.492c-10.695-0.004-21.392,0.123-32.084,0.367
					c0-21.863,0-43.726,0-65.588c10.693,0.244,21.389,0.368,32.084,0.368C276.565,64.256,276.566,85.875,276.565,107.492z"/>
			</g>
			<g>
				<linearGradient id="SVGID_9_" gradientUnits="userSpaceOnUse" x1="267.0752" y1="99.8896" x2="316.7224" y2="50.2424">
					<stop  offset="0" style="stop-color:#1CCC74"/>
					<stop  offset="1" style="stop-color:#155799"/>
				</linearGradient>
				<path fill="none" stroke="url(#SVGID_9_)" stroke-miterlimit="10" d="M307.763,107.838c-10.693-0.24-21.389-0.354-32.084-0.346
					c-0.002-21.617-0.001-43.236-0.001-64.854c10.696,0.008,21.391-0.112,32.085-0.345
					C307.763,64.142,307.763,85.99,307.763,107.838z"/>
				<linearGradient id="SVGID_10_" gradientUnits="userSpaceOnUse" x1="298.9453" y1="100.2441" x2="349.2974" y2="49.8921">
					<stop  offset="0" style="stop-color:#1CCC74"/>
					<stop  offset="1" style="stop-color:#155799"/>
				</linearGradient>
				<path fill="none" stroke="url(#SVGID_10_)" stroke-miterlimit="10" d="M339.606,108.912
					c-10.689-0.486-21.385-0.846-32.081-1.078c-0.002-21.846-0.001-43.691-0.001-65.535c10.697-0.239,21.392-0.593,32.081-1.076
					C339.605,63.786,339.604,86.35,339.606,108.912z"/>
				<linearGradient id="SVGID_11_" gradientUnits="userSpaceOnUse" x1="330.4492" y1="100.957" x2="382.2289" y2="49.1774">
					<stop  offset="0" style="stop-color:#1CCC74"/>
					<stop  offset="1" style="stop-color:#155799"/>
				</linearGradient>
				<path fill="none" stroke="url(#SVGID_11_)" stroke-miterlimit="10" d="M371.446,110.707
					c-10.686-0.719-21.378-1.322-32.077-1.809c-0.004-22.555-0.002-45.11-0.002-67.666c10.699-0.479,21.394-1.08,32.079-1.804
					C371.446,63.189,371.444,86.947,371.446,110.707z"/>
				<linearGradient id="SVGID_12_" gradientUnits="userSpaceOnUse" x1="361.582" y1="102.0371" x2="415.5174" y2="48.1018">
					<stop  offset="0" style="stop-color:#1CCC74"/>
					<stop  offset="1" style="stop-color:#155799"/>
				</linearGradient>
				<path fill="none" stroke="url(#SVGID_12_)" stroke-miterlimit="10" d="M403.278,113.23c-10.681-0.961-21.372-1.814-32.072-2.537
					c-0.001-23.748,0-47.498,0-71.248c10.699-0.723,21.392-1.57,32.072-2.536C403.278,62.35,403.278,87.791,403.278,113.23z"/>
			</g>
			<g>
				<linearGradient id="SVGID_13_" gradientUnits="userSpaceOnUse" x1="392.3496" y1="103.4805" x2="449.1614" y2="46.6687">
					<stop  offset="0" style="stop-color:#1CCC74"/>
					<stop  offset="1" style="stop-color:#155799"/>
				</linearGradient>
				<path fill="none" stroke="url(#SVGID_13_)" stroke-miterlimit="10" d="M435.101,116.484
					c-10.674-1.221-21.364-2.307-32.062-3.271c0.001-25.428,0-50.854,0-76.281c10.699-0.966,21.388-2.055,32.062-3.264
					C435.101,61.272,435.101,88.877,435.101,116.484z"/>
				<linearGradient id="SVGID_14_" gradientUnits="userSpaceOnUse" x1="422.7441" y1="105.2832" x2="483.1555" y2="44.8718">
					<stop  offset="0" style="stop-color:#1CCC74"/>
					<stop  offset="1" style="stop-color:#155799"/>
				</linearGradient>
				<path fill="none" stroke="url(#SVGID_14_)" stroke-miterlimit="10" d="M466.911,120.459
					c-10.666-1.459-21.351-2.795-32.049-4.004c0-27.586,0-55.173,0-82.76c10.698-1.212,21.383-2.542,32.051-3.993
					C466.913,59.954,466.915,90.205,466.911,120.459z"/>
				<linearGradient id="SVGID_15_" gradientUnits="userSpaceOnUse" x1="452.7656" y1="107.4512" x2="517.5026" y2="42.7142">
					<stop  offset="0" style="stop-color:#1CCC74"/>
					<stop  offset="1" style="stop-color:#155799"/>
				</linearGradient>
				<path fill="none" stroke="url(#SVGID_15_)" stroke-miterlimit="10" d="M498.713,125.158c-10.661-1.695-21.34-3.275-32.037-4.732
					c-0.004-30.23,0-60.462,0-90.692c10.697-1.452,21.376-3.031,32.037-4.723C498.713,58.393,498.713,91.775,498.713,125.158z"/>
				<linearGradient id="SVGID_16_" gradientUnits="userSpaceOnUse" x1="482.4053" y1="109.9814" x2="552.1912" y2="40.1955">
					<stop  offset="0" style="stop-color:#1CCC74"/>
					<stop  offset="1" style="stop-color:#155799"/>
				</linearGradient>
				<path fill="none" stroke="url(#SVGID_16_)" stroke-miterlimit="10" d="M530.494,130.584c-10.653-1.943-21.328-3.76-32.022-5.463
					c0.006-33.357,0.002-66.714,0.002-100.072c10.694-1.698,21.367-3.517,32.021-5.452
					C530.494,56.594,530.494,93.59,530.494,130.584z"/>
			</g>
		</g>
		<linearGradient id="SVGID_17_" gradientUnits="userSpaceOnUse" x1="138.2944" y1="175.5039" x2="412.7526" y2="-98.9543">
			<stop  offset="0" style="stop-color:#1CCC74"/>
			<stop  offset="1" style="stop-color:#155799"/>
		</linearGradient>
		<path fill="none" stroke="url(#SVGID_17_)" stroke-miterlimit="10" d="M530.02,57.264c-169.54,9.919-339.455,9.931-508.994,0
			c0-12.618,0-25.235,0-37.853c168.647,30.529,340.345,30.514,508.994,0C530.02,32.029,530.02,44.646,530.02,57.264z"/>
		<linearGradient id="SVGID_18_" gradientUnits="userSpaceOnUse" x1="138.2964" y1="212.5879" x2="412.7503" y2="-61.866">
			<stop  offset="0" style="stop-color:#1CCC74"/>
			<stop  offset="1" style="stop-color:#155799"/>
		</linearGradient>
		<path fill="none" stroke="url(#SVGID_18_)" stroke-miterlimit="10" d="M530.02,94.287
			c-169.54-10.354-339.454-10.344-508.994-0.001c0-12.617,0-25.234,0-37.851c169.528,10.378,339.465,10.377,508.994,0
			C530.02,69.052,530.019,81.669,530.02,94.287z"/>
		<linearGradient id="SVGID_19_" gradientUnits="userSpaceOnUse" x1="138.2939" y1="249.6768" x2="412.7529" y2="-24.7822">
			<stop  offset="0" style="stop-color:#1CCC74"/>
			<stop  offset="1" style="stop-color:#155799"/>
		</linearGradient>
		<path fill="none" stroke="url(#SVGID_19_)" stroke-miterlimit="10" d="M530.02,131.311c-168.664-30.506-340.329-30.509-508.994,0
			c-0.001-12.617-0.001-25.236,0-37.854c169.544-9.908,339.448-9.907,508.994,0C530.019,106.074,530.019,118.693,530.02,131.311z"/>
	</g>
</g>
<g>
	<g>
		
			<line fill="none" stroke="#1CCC74" stroke-width="1.5" stroke-miterlimit="10" x1="253.142" y1="121.699" x2="258.867" y2="115.975"/>
		
			<line fill="none" stroke="#1CCC74" stroke-width="1.5" stroke-miterlimit="10" x1="258.867" y1="127.164" x2="253.142" y2="121.439"/>
	</g>
	
		<line fill="none" stroke="#155799" stroke-width="1.5" stroke-miterlimit="10" x1="297.902" y1="121.699" x2="292.178" y2="115.975"/>
	
		<line fill="none" stroke="#155799" stroke-width="1.5" stroke-miterlimit="10" x1="292.178" y1="127.164" x2="297.902" y2="121.439"/>
	<linearGradient id="SVGID_20_" gradientUnits="userSpaceOnUse" x1="257.7939" y1="121.5693" x2="293.25" y2="121.5693">
		<stop  offset="0" style="stop-color:#1CCC74"/>
		<stop  offset="1" style="stop-color:#155799"/>
	</linearGradient>
	
		<line fill="none" stroke="url(#SVGID_20_)" stroke-width="1.5" stroke-miterlimit="10" x1="257.794" y1="121.569" x2="293.25" y2="121.569"/>
</g>
<g>
	<g>
		<path fill="none" stroke="#1CCC74" stroke-width="0.5" stroke-miterlimit="10" d="M264.942,29.033
			c0.051-0.356,0.148-0.673,0.293-0.952c0.145-0.277,0.329-0.513,0.553-0.705c0.223-0.191,0.482-0.337,0.775-0.437
			c0.294-0.1,0.611-0.15,0.952-0.15c0.317,0,0.617,0.044,0.898,0.132c0.282,0.087,0.529,0.22,0.743,0.396
			c0.213,0.176,0.382,0.396,0.505,0.658c0.124,0.262,0.185,0.565,0.185,0.91c0,0.27-0.041,0.514-0.123,0.731
			c-0.083,0.218-0.197,0.409-0.344,0.573c-0.147,0.165-0.32,0.302-0.52,0.414c-0.2,0.111-0.417,0.197-0.652,0.255
			c0.61,0.114,1.072,0.35,1.383,0.708c0.311,0.358,0.467,0.806,0.467,1.342c0,0.341-0.069,0.658-0.206,0.949
			c-0.137,0.292-0.325,0.543-0.564,0.754c-0.239,0.212-0.521,0.377-0.846,0.497c-0.325,0.119-0.678,0.179-1.058,0.179
			c-0.474,0-0.869-0.064-1.184-0.191c-0.315-0.127-0.575-0.293-0.778-0.496c-0.204-0.204-0.362-0.432-0.476-0.685
			c-0.114-0.253-0.206-0.504-0.276-0.755l0.224-0.094c0.063-0.028,0.128-0.035,0.197-0.024c0.068,0.012,0.118,0.057,0.15,0.136
			c0.02,0.047,0.045,0.12,0.079,0.22c0.034,0.1,0.082,0.21,0.144,0.332c0.063,0.122,0.144,0.246,0.244,0.374
			c0.1,0.127,0.226,0.244,0.376,0.349c0.151,0.106,0.332,0.192,0.543,0.259c0.212,0.067,0.462,0.1,0.752,0.1
			c0.353,0,0.661-0.059,0.925-0.176c0.264-0.118,0.485-0.267,0.664-0.449c0.178-0.183,0.312-0.386,0.399-0.611
			c0.088-0.226,0.132-0.444,0.132-0.656c0-0.254-0.04-0.491-0.12-0.71c-0.081-0.22-0.215-0.409-0.403-0.567
			c-0.188-0.158-0.435-0.284-0.743-0.375c-0.307-0.092-0.686-0.138-1.136-0.138v-0.405c0.36-0.008,0.677-0.056,0.951-0.144
			c0.274-0.088,0.503-0.208,0.687-0.362c0.185-0.152,0.324-0.334,0.417-0.546c0.094-0.211,0.141-0.444,0.141-0.699
			c0-0.293-0.049-0.548-0.146-0.763c-0.098-0.216-0.229-0.394-0.394-0.535c-0.165-0.141-0.357-0.245-0.576-0.311
			c-0.22-0.066-0.448-0.1-0.688-0.1c-0.262,0-0.505,0.041-0.728,0.12c-0.224,0.081-0.42,0.192-0.591,0.335s-0.313,0.313-0.426,0.511
			s-0.192,0.415-0.235,0.649c-0.024,0.086-0.057,0.144-0.1,0.171c-0.043,0.027-0.104,0.037-0.182,0.029L264.942,29.033z"/>
		<path fill="none" stroke="#1CCC74" stroke-width="0.5" stroke-miterlimit="10" d="M273.278,30.12
			c-0.121,0.161-0.233,0.312-0.335,0.452c-0.102,0.141-0.193,0.28-0.276,0.417c0.231-0.239,0.505-0.425,0.822-0.561
			c0.318-0.135,0.664-0.202,1.041-0.202c0.356,0,0.685,0.059,0.987,0.176c0.302,0.118,0.562,0.283,0.778,0.496
			c0.217,0.214,0.388,0.472,0.512,0.776c0.123,0.304,0.185,0.643,0.185,1.019c0,0.376-0.067,0.723-0.202,1.04
			c-0.137,0.318-0.324,0.591-0.564,0.823c-0.241,0.23-0.53,0.411-0.866,0.54c-0.337,0.13-0.708,0.195-1.111,0.195
			c-0.388,0-0.742-0.063-1.063-0.188c-0.321-0.125-0.596-0.306-0.825-0.541c-0.229-0.235-0.407-0.522-0.532-0.86
			c-0.126-0.339-0.188-0.722-0.188-1.148c0-0.325,0.082-0.692,0.246-1.102c0.165-0.409,0.435-0.868,0.811-1.377l2.267-3.056
			c0.067-0.089,0.167-0.134,0.3-0.134h0.494L273.278,30.12z M274.242,34.826c0.336,0,0.64-0.053,0.91-0.159
			c0.271-0.106,0.5-0.251,0.69-0.438c0.19-0.187,0.335-0.407,0.438-0.664c0.102-0.257,0.153-0.535,0.153-0.837
			c0-0.317-0.051-0.604-0.15-0.861c-0.1-0.256-0.241-0.473-0.423-0.651c-0.182-0.179-0.399-0.316-0.649-0.412
			s-0.528-0.144-0.834-0.144c-0.345,0-0.653,0.06-0.925,0.179c-0.272,0.12-0.502,0.274-0.69,0.464
			c-0.188,0.19-0.331,0.407-0.429,0.649c-0.098,0.244-0.147,0.488-0.147,0.734c0,0.31,0.048,0.596,0.144,0.858
			c0.096,0.262,0.232,0.488,0.408,0.679c0.176,0.19,0.392,0.337,0.646,0.443C273.639,34.773,273.924,34.826,274.242,34.826z"/>
		<path fill="none" stroke="#1CCC74" stroke-width="0.5" stroke-miterlimit="10" d="M284.041,31.036
			c0,0.729-0.079,1.359-0.235,1.892c-0.157,0.533-0.37,0.973-0.64,1.322c-0.271,0.349-0.588,0.609-0.949,0.779
			c-0.362,0.17-0.75,0.255-1.16,0.255c-0.412,0-0.798-0.085-1.158-0.255c-0.359-0.17-0.676-0.43-0.945-0.779
			s-0.482-0.789-0.637-1.322c-0.155-0.533-0.232-1.163-0.232-1.892s0.077-1.358,0.232-1.891c0.154-0.533,0.367-0.974,0.637-1.322
			c0.27-0.348,0.586-0.608,0.945-0.778c0.36-0.17,0.746-0.255,1.158-0.255c0.41,0,0.798,0.085,1.16,0.255
			c0.361,0.17,0.678,0.43,0.949,0.778c0.27,0.349,0.482,0.789,0.64,1.322C283.962,29.678,284.041,30.308,284.041,31.036z
			 M283.453,31.036c0-0.674-0.064-1.25-0.193-1.727c-0.13-0.478-0.303-0.869-0.521-1.172s-0.472-0.526-0.764-0.667
			c-0.292-0.141-0.599-0.21-0.919-0.21c-0.322,0-0.627,0.07-0.917,0.21c-0.29,0.141-0.544,0.364-0.763,0.667
			c-0.221,0.303-0.395,0.694-0.523,1.172c-0.13,0.478-0.194,1.053-0.194,1.727c0,0.678,0.064,1.254,0.194,1.73
			c0.129,0.476,0.303,0.866,0.523,1.169c0.219,0.304,0.473,0.525,0.763,0.664c0.29,0.139,0.595,0.209,0.917,0.209
			c0.32,0,0.627-0.07,0.919-0.209c0.292-0.139,0.546-0.36,0.764-0.664c0.218-0.303,0.391-0.693,0.521-1.169
			C283.389,32.29,283.453,31.714,283.453,31.036z"/>
	</g>
	<g>
		<path fill="none" stroke="#1CCC74" stroke-width="0.5" stroke-miterlimit="10" d="M287.955,22.788c0.279,0,0.529,0.047,0.75,0.143
			c0.221,0.095,0.406,0.23,0.559,0.405c0.151,0.175,0.267,0.386,0.346,0.632c0.08,0.247,0.121,0.523,0.121,0.828
			c0,0.306-0.041,0.582-0.121,0.827c-0.079,0.246-0.194,0.456-0.346,0.631c-0.152,0.175-0.338,0.309-0.559,0.403
			c-0.221,0.094-0.471,0.141-0.75,0.141s-0.529-0.047-0.75-0.141c-0.221-0.094-0.407-0.228-0.56-0.403
			c-0.153-0.175-0.269-0.385-0.349-0.631c-0.08-0.245-0.12-0.521-0.12-0.827c0-0.305,0.04-0.581,0.12-0.828
			c0.08-0.247,0.195-0.458,0.349-0.632c0.152-0.175,0.339-0.31,0.56-0.405C287.426,22.835,287.676,22.788,287.955,22.788z
			 M287.955,26.505c0.232,0,0.436-0.04,0.609-0.119c0.174-0.08,0.318-0.194,0.436-0.343c0.115-0.149,0.202-0.329,0.26-0.539
			c0.057-0.21,0.086-0.446,0.086-0.708c0-0.258-0.029-0.493-0.086-0.705c-0.058-0.211-0.145-0.392-0.26-0.542
			c-0.117-0.15-0.262-0.266-0.436-0.347c-0.174-0.081-0.377-0.121-0.609-0.121s-0.436,0.041-0.609,0.121
			c-0.174,0.081-0.318,0.197-0.435,0.347c-0.115,0.15-0.204,0.331-0.263,0.542s-0.088,0.446-0.088,0.705
			c0,0.261,0.029,0.497,0.088,0.708c0.059,0.21,0.147,0.389,0.263,0.539c0.116,0.148,0.261,0.263,0.435,0.343
			C287.52,26.465,287.723,26.505,287.955,26.505z"/>
	</g>
</g>
</svg>
