<?xml version="1.0" encoding="utf-8"?>
<!-- Generator: Adobe Illustrator 16.0.0, SVG Export Plug-In . SVG Version: 6.00 Build 0)  -->
<!DOCTYPE svg PUBLIC "-//W3C//DTD SVG 1.1//EN" "http://www.w3.org/Graphics/SVG/1.1/DTD/svg11.dtd">
<svg version="1.1" id="Layer_1" xmlns="http://www.w3.org/2000/svg" xmlns:xlink="http://www.w3.org/1999/xlink" x="0px" y="0px"
	 width="100px" height="100px" viewBox="0 0 100 100" enable-background="new 0 0 100 100" xml:space="preserve">
<g>
	<g>
		<linearGradient id="SVGID_1_" gradientUnits="userSpaceOnUse" x1="16.8945" y1="50.3691" x2="80.6621" y2="50.3691">
			<stop  offset="0" style="stop-color:#00BF8F"/>
			<stop  offset="1" style="stop-color:#001510"/>
		</linearGradient>
		<path fill="url(#SVGID_1_)" d="M50.543,82.809c-19.183,0-33.648-15.152-33.648-35.244c0-19.668,15.259-35.076,34.74-35.076
			c15.832,0,24.359,8.06,24.713,8.403l2.719,2.625l-9.168,13.568l-3.837-3.352c-0.034-0.028-5.603-4.686-13.755-4.686
			c-12.326,0-17.844,9.215-17.844,18.348c0,11.051,7.13,18.768,17.34,18.768c5.86,0,10.316-3.123,12.299-4.816v-6.66l-17.477-0.063
			L56.688,42.98h23.975v45.263L64.354,88.25v-8.615C60.852,81.355,56.215,82.809,50.543,82.809z"/>
	</g>
</g>
<g>
	<g>
		<linearGradient id="SVGID_2_" gradientUnits="userSpaceOnUse" x1="31.5249" y1="77.7334" x2="82.4041" y2="26.8542">
			<stop  offset="0" style="stop-color:#159957"/>
			<stop  offset="1" style="stop-color:#1C74CC"/>
		</linearGradient>
		<path fill="url(#SVGID_2_)" d="M50.543,82.809c-19.183,0-33.648-15.152-33.648-35.244c0-19.668,15.259-35.076,34.74-35.076
			c15.832,0,24.359,8.06,24.713,8.403l2.719,2.625l-9.168,13.568l-3.837-3.352c-0.034-0.028-5.603-4.686-13.755-4.686
			c-12.326,0-17.844,9.215-17.844,18.348c0,11.051,7.13,18.768,17.34,18.768c5.86,0,10.316-3.123,12.299-4.816v-6.66l-17.477-0.063
			L56.688,42.98h23.975v45.263L64.354,88.25v-8.615C60.852,81.355,56.215,82.809,50.543,82.809z"/>
	</g>
</g>
<g>
	<g>
		<linearGradient id="SVGID_3_" gradientUnits="userSpaceOnUse" x1="52.3262" y1="81.9609" x2="85.9849" y2="48.3022">
			<stop  offset="0" style="stop-color:#0E663A"/>
			<stop  offset="1" style="stop-color:#155799"/>
		</linearGradient>
		<path fill="url(#SVGID_3_)" d="M64.354,88.25l16.309-0.007V42.98H56.688L46.625,54.625l17.477,0.063v6.66
			c-1.982,1.693-6.438,4.816-12.299,4.816c-2.406,0-4.633-0.442-6.644-1.242c0.78,6.609,3.604,12.691,7.905,17.778
			c4.535-0.353,8.323-1.608,11.289-3.065V88.25z"/>
	</g>
</g>
<g>
	<g>
		<g>
			<linearGradient id="SVGID_4_" gradientUnits="userSpaceOnUse" x1="11.5103" y1="66.749" x2="71.1703" y2="7.0889">
				<stop  offset="0" style="stop-color:#1CCC74"/>
				<stop  offset="1" style="stop-color:#155799"/>
			</linearGradient>
			<path fill="url(#SVGID_4_)" d="M61.344,31c4.688,1.969,5.323,3.333,8.531,6.031l9.191-13.514l-2.719-2.625
				c-0.354-0.343-8.881-8.403-24.713-8.403c-19.481,0-34.74,15.407-34.74,35.076c0,10.936,4.292,20.4,11.29,26.763
				c-1.788-4.128-2.779-8.648-2.779-13.392C25.405,41.559,42.627,23.139,61.344,31z"/>
		</g>
	</g>
</g>
</svg>
