<?xml version="1.0" encoding="utf-8"?>
<!-- Generator: Adobe Illustrator 16.0.0, SVG Export Plug-In . SVG Version: 6.00 Build 0)  -->
<!DOCTYPE svg PUBLIC "-//W3C//DTD SVG 1.1//EN" "http://www.w3.org/Graphics/SVG/1.1/DTD/svg11.dtd">
<svg version="1.1" id="Layer_1" xmlns="http://www.w3.org/2000/svg" xmlns:xlink="http://www.w3.org/1999/xlink" x="0px" y="0px"
	 width="100px" height="100px" viewBox="0 0 100 100" enable-background="new 0 0 100 100" xml:space="preserve">
<g>
	<g>
		<linearGradient id="SVGID_1_" gradientUnits="userSpaceOnUse" x1="3.5112" y1="36.9365" x2="84.2646" y2="36.9365">
			<stop  offset="0" style="stop-color:#11998E"/>
			<stop  offset="1" style="stop-color:#38EE7F"/>
		</linearGradient>
		<path fill="url(#SVGID_1_)" d="M82.292,23.505c1.648-0.073,2.417-1.352,1.709-2.842L78.479,9.055
			c-0.708-1.49-2.638-2.709-4.288-2.709H30.509c-1.65,0-3.646,1.186-4.435,2.634L4.103,49.305c-0.789,1.449-0.789,3.82,0,5.269
			l6.467,11.867c0.79,1.449,2.077,1.447,2.862-0.005l21.723-40.195c0.785-1.452,2.776-2.631,4.426-2.621l32.315,0.193
			c1.65,0.01,4.349-0.042,5.997-0.114L82.292,23.505z"/>
		<path fill="none" stroke="#F9F9F9" stroke-width="2" stroke-miterlimit="10" d="M82.292,23.505
			c1.648-0.073,2.417-1.352,1.709-2.842L78.479,9.055c-0.708-1.49-2.638-2.709-4.288-2.709H30.509c-1.65,0-3.646,1.186-4.435,2.634
			L4.103,49.305c-0.789,1.449-0.789,3.82,0,5.269l6.467,11.867c0.79,1.449,2.077,1.447,2.862-0.005l21.723-40.195
			c0.785-1.452,2.776-2.631,4.426-2.621l32.315,0.193c1.65,0.01,4.349-0.042,5.997-0.114L82.292,23.505z"/>
	</g>
	<g>
		<linearGradient id="SVGID_2_" gradientUnits="userSpaceOnUse" x1="16.4199" y1="66.7031" x2="98.0127" y2="66.7031">
			<stop  offset="0" style="stop-color:#11998E"/>
			<stop  offset="1" style="stop-color:#38EE7F"/>
		</linearGradient>
		<path fill="url(#SVGID_2_)" d="M84.043,38.313c-1.399-0.016-3.894-0.029-5.544-0.029H65.938c-1.65,0-4.35,0-6,0h-2.12
			c-1.65,0-4.35,0.016-6,0.035l-3.938,0.045c-1.65,0.019-3.621,1.233-4.381,2.698L32.817,61.67c-0.76,1.465-0.031,2.663,1.619,2.663
			h7.23c1.65,0,3.697-1.156,4.55-2.568l4.567-7.572c0.853-1.412,2.899-2.588,4.55-2.611l20.66-0.292
			c1.65-0.023,2.286,1.103,1.414,2.504L64.792,74.045c-0.872,1.401-2.936,2.556-4.586,2.566l-30.15,0.191
			c-1.65,0.01-4.35,0.019-6,0.019h-5.69c-1.65,0-2.398,1.208-1.663,2.686l6.438,12.931c0.736,1.478,2.688,2.686,4.337,2.686H71.16
			c1.65,0,3.646-1.186,4.436-2.635l21.969-40.324c0.79-1.449,0.507-3.615-0.628-4.813l-5.904-6.229
			c-1.135-1.198-2.6-2.313-3.254-2.479S85.443,38.329,84.043,38.313z"/>
		<path fill="none" stroke="#F9F9F9" stroke-width="2" stroke-miterlimit="10" d="M84.043,38.313
			c-1.399-0.016-3.894-0.029-5.544-0.029H65.938c-1.65,0-4.35,0-6,0h-2.12c-1.65,0-4.35,0.016-6,0.035l-3.938,0.045
			c-1.65,0.019-3.621,1.233-4.381,2.698L32.817,61.67c-0.76,1.465-0.031,2.663,1.619,2.663h7.23c1.65,0,3.697-1.156,4.55-2.568
			l4.567-7.572c0.853-1.412,2.899-2.588,4.55-2.611l20.66-0.292c1.65-0.023,2.286,1.103,1.414,2.504L64.792,74.045
			c-0.872,1.401-2.936,2.556-4.586,2.566l-30.15,0.191c-1.65,0.01-4.35,0.019-6,0.019h-5.69c-1.65,0-2.398,1.208-1.663,2.686
			l6.438,12.931c0.736,1.478,2.688,2.686,4.337,2.686H71.16c1.65,0,3.646-1.186,4.436-2.635l21.969-40.324
			c0.79-1.449,0.507-3.615-0.628-4.813l-5.904-6.229c-1.135-1.198-2.6-2.313-3.254-2.479S85.443,38.329,84.043,38.313z"/>
	</g>
</g>
</svg>
